<svg xmlns="http://www.w3.org/2000/svg" xmlns:xlink="http://www.w3.org/1999/xlink" viewBox="0 0 706 468.99"><defs><style>.cls-1{fill:url(#linear-gradient);}.cls-2{fill:url(#linear-gradient-2);}.cls-3{fill:url(#linear-gradient-3);}.cls-4{fill:url(#linear-gradient-4);}.cls-5{fill:url(#linear-gradient-5);}.cls-6,.cls-7{fill:#e1ffff;}.cls-34,.cls-38,.cls-48,.cls-50,.cls-51,.cls-52,.cls-58,.cls-7{isolation:isolate;}.cls-7{opacity:0.49;}.cls-8{fill:url(#linear-gradient-6);}.cls-9{fill:url(#linear-gradient-7);}.cls-10{fill:url(#linear-gradient-8);}.cls-11{fill:url(#linear-gradient-9);}.cls-12{fill:url(#linear-gradient-10);}.cls-13{fill:url(#linear-gradient-11);}.cls-14{fill:url(#linear-gradient-12);}.cls-15{fill:url(#linear-gradient-13);}.cls-16{fill:url(#radial-gradient);}.cls-17,.cls-58{fill:#fff;}.cls-18{fill:url(#linear-gradient-14);}.cls-19{fill:url(#linear-gradient-15);}.cls-20{fill:url(#linear-gradient-16);}.cls-21{fill:url(#linear-gradient-17);}.cls-22{fill:url(#linear-gradient-18);}.cls-23{fill:url(#radial-gradient-2);}.cls-24{fill:url(#linear-gradient-19);}.cls-25{fill:url(#linear-gradient-20);}.cls-26{fill:url(#linear-gradient-21);}.cls-27{fill:url(#linear-gradient-22);}.cls-28{fill:url(#linear-gradient-23);}.cls-29{fill:url(#linear-gradient-24);}.cls-30{fill:url(#linear-gradient-25);}.cls-31{fill:#532739;}.cls-32{fill:url(#linear-gradient-26);}.cls-33{fill:url(#linear-gradient-27);}.cls-34,.cls-38,.cls-50{opacity:0.27;}.cls-34{fill:url(#linear-gradient-28);}.cls-35{fill:url(#linear-gradient-29);}.cls-36{fill:url(#linear-gradient-30);}.cls-37{fill:url(#linear-gradient-31);}.cls-38{fill:url(#linear-gradient-32);}.cls-39{fill:url(#linear-gradient-33);}.cls-40{fill:url(#linear-gradient-34);}.cls-41{fill:url(#linear-gradient-35);}.cls-42{fill:#fefefe;}.cls-43{fill:url(#linear-gradient-36);}.cls-44{fill:url(#linear-gradient-37);}.cls-45{fill:url(#linear-gradient-38);}.cls-46{fill:url(#linear-gradient-39);}.cls-47{fill:url(#linear-gradient-40);}.cls-48{opacity:0.36;fill:url(#linear-gradient-41);}.cls-49{fill:url(#linear-gradient-42);}.cls-50{fill:url(#linear-gradient-43);}.cls-51,.cls-52{opacity:0.83;}.cls-51{fill:url(#linear-gradient-44);}.cls-52{fill:url(#linear-gradient-45);}.cls-53{opacity:0.94;}.cls-54{fill:url(#linear-gradient-46);}.cls-55{fill:url(#linear-gradient-47);}.cls-56{fill:url(#linear-gradient-48);}.cls-57{fill:url(#linear-gradient-49);}.cls-58{opacity:0.53;}.cls-59{fill:url(#linear-gradient-50);}.cls-60{fill:url(#linear-gradient-51);}.cls-61{fill:url(#linear-gradient-52);}.cls-62{fill:url(#linear-gradient-53);}.cls-63{fill:url(#linear-gradient-54);}.cls-64{fill:url(#linear-gradient-55);}.cls-65{fill:url(#linear-gradient-56);}.cls-66{fill:url(#linear-gradient-57);}.cls-67{fill:url(#linear-gradient-58);}.cls-68{fill:url(#linear-gradient-59);}.cls-69{fill:url(#linear-gradient-60);}.cls-70{fill:url(#linear-gradient-61);}.cls-71{fill:url(#linear-gradient-62);}</style><linearGradient id="linear-gradient" x1="1120.97" y1="909.47" x2="494.1" y2="51.14" gradientTransform="translate(1142.82 471.23) rotate(180)" gradientUnits="userSpaceOnUse"><stop offset="0" stop-color="#e7357c"/><stop offset="1" stop-color="#5d0080"/></linearGradient><linearGradient id="linear-gradient-2" x1="307.83" y1="229.48" x2="408.67" y2="229.48" gradientTransform="matrix(1, 0, 0, -1, 0, 471.23)" gradientUnits="userSpaceOnUse"><stop offset="0" stop-color="#bdf7a3"/><stop offset="1" stop-color="#009ee0"/></linearGradient><linearGradient id="linear-gradient-3" x1="309.18" y1="304.96" x2="314.57" y2="190.67" gradientTransform="matrix(1, 0, 0, -1, 0, 471.23)" gradientUnits="userSpaceOnUse"><stop offset="0" stop-color="#ffe900"/><stop offset="1" stop-color="#ff13bd"/></linearGradient><linearGradient id="linear-gradient-4" x1="361.51" y1="299.92" x2="312.73" y2="225.42" xlink:href="#linear-gradient-3"/><linearGradient id="linear-gradient-5" x1="324.73" y1="344.67" x2="706" y2="344.67" gradientTransform="matrix(1, 0, 0, -1, 0, 471.23)" xlink:href="#linear-gradient"/><linearGradient id="linear-gradient-6" x1="21.55" y1="409.44" x2="146.93" y2="409.44" gradientTransform="matrix(1, 0, 0, -1, 0.01, 471.23)" gradientUnits="userSpaceOnUse"><stop offset="0" stop-color="#ffe900"/><stop offset="0.17" stop-color="#ffcb1b"/><stop offset="0.54" stop-color="#ff7d60"/><stop offset="1" stop-color="#ff13bd"/></linearGradient><linearGradient id="linear-gradient-7" x1="40.19" y1="401.16" x2="61.21" y2="437.94" gradientTransform="matrix(1, 0, 0, -1, 0, 471.23)" gradientUnits="userSpaceOnUse"><stop offset="0" stop-color="#e7fff9"/><stop offset="1" stop-color="#ff5668"/></linearGradient><linearGradient id="linear-gradient-8" x1="121.36" y1="427.66" x2="119.27" y2="454.04" xlink:href="#linear-gradient-7"/><linearGradient id="linear-gradient-9" x1="89.55" y1="441.02" x2="91.43" y2="450.87" xlink:href="#linear-gradient-7"/><linearGradient id="linear-gradient-10" x1="75.33" y1="391.96" x2="86.7" y2="391.96" xlink:href="#linear-gradient-7"/><linearGradient id="linear-gradient-11" x1="110.81" y1="400.36" x2="119.02" y2="400.36" xlink:href="#linear-gradient-7"/><linearGradient id="linear-gradient-12" x1="66.18" y1="440.92" x2="70.87" y2="445.11" xlink:href="#linear-gradient-7"/><linearGradient id="linear-gradient-13" x1="57.94" y1="450.52" x2="58.77" y2="455.59" xlink:href="#linear-gradient-7"/><radialGradient id="radial-gradient" cx="128.84" cy="352.82" r="11.1" gradientTransform="matrix(1.01, 0, 0, -1, -6.38, 471.23)" gradientUnits="userSpaceOnUse"><stop offset="0" stop-color="#ffec41"/><stop offset="0.2" stop-color="#ffb44e"/><stop offset="0.49" stop-color="#ff6860"/><stop offset="0.73" stop-color="#ff306e"/><stop offset="0.9" stop-color="#ff0d76"/><stop offset="1" stop-color="#ff0079"/></radialGradient><linearGradient id="linear-gradient-14" x1="574.42" y1="210.3" x2="574.42" y2="193.36" gradientTransform="matrix(0.96, -0.27, -0.27, -0.96, 129.53, 477.47)" gradientUnits="userSpaceOnUse"><stop offset="0" stop-color="#cd22ff"/><stop offset="1" stop-color="#423bd7"/></linearGradient><linearGradient id="linear-gradient-15" x1="558.33" y1="201.07" x2="569.14" y2="201.07" xlink:href="#linear-gradient-14"/><linearGradient id="linear-gradient-16" x1="558.42" y1="208.9" x2="579.73" y2="208.9" gradientTransform="matrix(0.96, -0.27, -0.27, -0.96, 129.53, 477.47)" xlink:href="#linear-gradient-2"/><linearGradient id="linear-gradient-17" x1="328.08" y1="-91.32" x2="421.3" y2="-91.32" gradientTransform="matrix(1, -0.1, -0.1, -1, 124.85, 86.22)" xlink:href="#linear-gradient-3"/><linearGradient id="linear-gradient-18" x1="420.14" y1="-37.04" x2="639.36" y2="-37.04" gradientTransform="matrix(0.98, 0.21, 0.21, -0.98, -1.44, -3.43)" xlink:href="#linear-gradient-2"/><radialGradient id="radial-gradient-2" cx="402.67" cy="233.84" r="15.86" gradientTransform="matrix(1.01, 0, 0, -1, -6.34, 471.23)" xlink:href="#radial-gradient"/><linearGradient id="linear-gradient-19" x1="425.95" y1="191.74" x2="402.58" y2="117.25" gradientTransform="matrix(1, 0, 0, -1, 0, 471.23)" gradientUnits="userSpaceOnUse"><stop offset="0" stop-color="#fcc198"/><stop offset="0.3" stop-color="#fcbd96"/><stop offset="0.59" stop-color="#fcb18f"/><stop offset="0.88" stop-color="#fc9e83"/><stop offset="1" stop-color="#fc937d"/></linearGradient><linearGradient id="linear-gradient-20" x1="358.42" y1="273.67" x2="358.42" y2="19.38" gradientTransform="matrix(1, 0, 0, -1, 0, 471.23)" xlink:href="#linear-gradient"/><linearGradient id="linear-gradient-21" x1="290.39" y1="65.68" x2="290.39" y2="65.19" gradientTransform="matrix(1, 0, 0, -1, 0, 471.23)" xlink:href="#linear-gradient"/><linearGradient id="linear-gradient-22" x1="441.17" y1="517.89" x2="441.48" y2="489.36" gradientTransform="matrix(0.74, -0.67, -0.67, -0.74, 428.18, 848.5)" xlink:href="#linear-gradient-19"/><linearGradient id="linear-gradient-23" x1="441.62" y1="517.81" x2="441.92" y2="489.34" gradientTransform="matrix(0.74, -0.67, -0.67, -0.74, 428.18, 848.5)" xlink:href="#linear-gradient-19"/><linearGradient id="linear-gradient-24" x1="440.08" y1="517.67" x2="440.37" y2="489.26" gradientTransform="matrix(0.74, -0.67, -0.67, -0.74, 428.18, 848.5)" xlink:href="#linear-gradient-19"/><linearGradient id="linear-gradient-25" x1="376.42" y1="455.92" x2="452.39" y2="455.92" gradientTransform="matrix(0.74, -0.67, -0.67, -0.74, 428.18, 848.5)" xlink:href="#linear-gradient-19"/><linearGradient id="linear-gradient-26" x1="363.21" y1="40.05" x2="313.24" y2="45.85" xlink:href="#linear-gradient-19"/><linearGradient id="linear-gradient-27" x1="364.76" y1="99.51" x2="357.26" y2="146.69" gradientTransform="matrix(1, 0, 0, -1, 0, 471.23)" gradientUnits="userSpaceOnUse"><stop offset="0" stop-color="#fcc198"/><stop offset="0.21" stop-color="#fbbd97"/><stop offset="0.42" stop-color="#f8b192"/><stop offset="0.63" stop-color="#f39e8b"/><stop offset="0.84" stop-color="#ed8280"/><stop offset="1" stop-color="#e66776"/></linearGradient><linearGradient id="linear-gradient-28" x1="385.12" y1="175.87" x2="332.58" y2="103.92" xlink:href="#linear-gradient-27"/><linearGradient id="linear-gradient-29" x1="396.3" y1="173.95" x2="376.05" y2="156.05" xlink:href="#linear-gradient-27"/><linearGradient id="linear-gradient-30" x1="840.98" y1="173.07" x2="820.73" y2="155.17" gradientTransform="translate(1156.53 471.23) rotate(180)" xlink:href="#linear-gradient-27"/><linearGradient id="linear-gradient-31" x1="357.07" y1="202.25" x2="357.07" y2="105.2" xlink:href="#linear-gradient-19"/><linearGradient id="linear-gradient-32" x1="357.07" y1="133.57" x2="357.07" y2="189.82" xlink:href="#linear-gradient-27"/><linearGradient id="linear-gradient-33" x1="357.54" y1="195.97" x2="357.54" y2="130.78" gradientTransform="matrix(1, 0, 0, -1, 0, 471.23)" gradientUnits="userSpaceOnUse"><stop offset="0" stop-color="#ebeeee"/><stop offset="1" stop-color="#a4b2d3"/></linearGradient><linearGradient id="linear-gradient-34" x1="357.52" y1="195.51" x2="357.52" y2="144.76" gradientTransform="matrix(1, 0, 0, -1, 0, 471.23)" gradientUnits="userSpaceOnUse"><stop offset="0" stop-color="#ebeeee"/><stop offset="1" stop-color="#cfdae4"/></linearGradient><linearGradient id="linear-gradient-35" x1="357.36" y1="225.04" x2="357.36" y2="162.9" xlink:href="#linear-gradient-2"/><linearGradient id="linear-gradient-36" x1="374.39" y1="205.18" x2="366.89" y2="122.36" gradientTransform="matrix(1, 0, 0, -1, 0, 471.23)" xlink:href="#linear-gradient"/><linearGradient id="linear-gradient-37" x1="374.77" y1="205.12" x2="367.27" y2="122.3" gradientTransform="matrix(1, 0, 0, -1, 0, 471.23)" xlink:href="#linear-gradient"/><linearGradient id="linear-gradient-38" x1="321.84" y1="131.57" x2="325.48" y2="106.02" xlink:href="#linear-gradient-19"/><linearGradient id="linear-gradient-39" x1="318.84" y1="131.15" x2="322.47" y2="105.6" xlink:href="#linear-gradient-19"/><linearGradient id="linear-gradient-40" x1="316.1" y1="130.77" x2="319.73" y2="105.22" xlink:href="#linear-gradient-19"/><linearGradient id="linear-gradient-41" x1="404.74" y1="144.38" x2="270.39" y2="-39.56" gradientTransform="matrix(1, 0, 0, -1, 0, 471.23)" xlink:href="#linear-gradient"/><linearGradient id="linear-gradient-42" x1="330.93" y1="129.6" x2="311.09" y2="40.12" xlink:href="#linear-gradient-19"/><linearGradient id="linear-gradient-43" x1="324.46" y1="123.46" x2="316.86" y2="103.72" xlink:href="#linear-gradient-27"/><linearGradient id="linear-gradient-44" x1="323.95" y1="138.04" x2="355.85" y2="138.04" gradientTransform="matrix(1, 0, 0, -1, -0.01, 471.23)" gradientUnits="userSpaceOnUse"><stop offset="0" stop-color="#047cff"/><stop offset="0.31" stop-color="#047fff"/><stop offset="0.51" stop-color="#0487ff"/><stop offset="0.68" stop-color="#0496ff"/><stop offset="0.83" stop-color="#05abff"/><stop offset="0.97" stop-color="#05c6ff"/><stop offset="1" stop-color="#05ccff"/></linearGradient><linearGradient id="linear-gradient-45" x1="323.55" y1="138.03" x2="356.22" y2="138.03" gradientTransform="matrix(1, 0, 0, -1, 0, 471.23)" xlink:href="#linear-gradient-44"/><linearGradient id="linear-gradient-46" x1="287.17" y1="243.91" x2="304.08" y2="214.58" gradientTransform="matrix(1, 0, 0, -1, -0.01, 471.23)" xlink:href="#linear-gradient-2"/><linearGradient id="linear-gradient-47" x1="179.66" y1="353.76" x2="179.66" y2="333.33" gradientTransform="matrix(0.99, 0.17, 0.17, -0.99, -73.76, 455.63)" xlink:href="#linear-gradient-2"/><linearGradient id="linear-gradient-48" x1="160.33" y1="342.5" x2="173.37" y2="342.5" gradientTransform="matrix(0.99, 0.17, 0.17, -0.99, -73.76, 455.63)" xlink:href="#linear-gradient-2"/><linearGradient id="linear-gradient-49" x1="160.52" y1="351.95" x2="186.15" y2="351.95" gradientTransform="matrix(0.99, 0.17, 0.17, -0.99, -73.76, 455.63)" xlink:href="#linear-gradient-2"/><linearGradient id="linear-gradient-50" x1="-44.69" y1="786.41" x2="-48.51" y2="764.06" gradientTransform="matrix(0.74, 0.68, 0.68, -0.74, -187.23, 714.71)" xlink:href="#linear-gradient-6"/><linearGradient id="linear-gradient-51" x1="-28.96" y1="784.49" x2="-39.03" y2="767.46" gradientTransform="matrix(0.74, 0.68, 0.68, -0.74, -186.95, 718.43)" xlink:href="#linear-gradient-6"/><linearGradient id="linear-gradient-52" x1="746.99" y1="787.53" x2="736.95" y2="770.58" gradientTransform="translate(312.9 1179.79) rotate(-137.42)" xlink:href="#linear-gradient-6"/><linearGradient id="linear-gradient-53" x1="-33.84" y1="814.19" x2="-54.96" y2="774.05" gradientTransform="matrix(0.74, 0.68, 0.68, -0.74, -186.95, 718.43)" xlink:href="#linear-gradient-2"/><linearGradient id="linear-gradient-54" x1="-46.44" y1="780.11" x2="-52.15" y2="762.42" gradientTransform="matrix(0.74, 0.68, 0.68, -0.74, -186.95, 718.43)" xlink:href="#linear-gradient-6"/><linearGradient id="linear-gradient-55" x1="221.84" y1="589.9" x2="206.41" y2="577.87" gradientTransform="matrix(0.89, -0.45, -0.45, -0.89, 388.57, 718.64)" gradientUnits="userSpaceOnUse"><stop offset="0" stop-color="#0e216d"/><stop offset="0.09" stop-color="#152171"/><stop offset="0.23" stop-color="#28217d"/><stop offset="0.39" stop-color="#472191"/><stop offset="0.57" stop-color="#7221ad"/><stop offset="0.77" stop-color="#aa22d0"/><stop offset="0.98" stop-color="#ed22fa"/><stop offset="1" stop-color="#f522ff"/></linearGradient><linearGradient id="linear-gradient-56" x1="-47.41" y1="797.28" x2="-50.02" y2="789.17" gradientTransform="matrix(0.74, 0.68, 0.68, -0.74, -186.95, 718.43)" xlink:href="#linear-gradient-6"/><linearGradient id="linear-gradient-57" x1="225.85" y1="761.8" x2="199.98" y2="734.6" gradientTransform="matrix(0.47, 0.88, 0.88, -0.47, -584.74, 207.55)" xlink:href="#linear-gradient"/><linearGradient id="linear-gradient-58" x1="190.38" y1="748.86" x2="206.07" y2="748.86" gradientTransform="matrix(0.47, 0.88, 0.88, -0.47, -584.74, 207.55)" xlink:href="#linear-gradient-2"/><linearGradient id="linear-gradient-59" x1="218.42" y1="801.4" x2="195.22" y2="724.51" gradientTransform="matrix(0.47, 0.88, 0.88, -0.47, -584.74, 207.55)" xlink:href="#linear-gradient-3"/><linearGradient id="linear-gradient-60" x1="287.61" y1="250.6" x2="262.02" y2="223.71" gradientTransform="matrix(0.97, -0.26, -0.26, -0.97, 123.03, 472.46)" xlink:href="#linear-gradient"/><linearGradient id="linear-gradient-61" x1="253.06" y1="237.32" x2="268.86" y2="237.32" gradientTransform="matrix(0.97, -0.26, -0.26, -0.97, 123.03, 472.46)" xlink:href="#linear-gradient-2"/><linearGradient id="linear-gradient-62" x1="279.44" y1="289.27" x2="256.55" y2="213.38" gradientTransform="matrix(0.97, -0.26, -0.26, -0.97, 123.03, 472.46)" xlink:href="#linear-gradient-3"/></defs><g id="Layer_2" data-name="Layer 2"><g id="Layer_1-2" data-name="Layer 1"><g id="Layer_2-2" data-name="Layer 2"><g id="OBJECTS"><path class="cls-1" d="M0,28.18C23.23,74,55.41,61.66,92.05,73.11s26.22,59.61,56.6,69.58,50.64,0,63.75,37,42.3,37.57,66.73,46.38,19.06,12.33,27.4,36.41,23.23,17.61,23.23,17.61h46.48s14.89,6.47,23.24-17.61,3-27.6,27.4-36.41,53.62-9.39,66.72-46.38,33.37-27,63.75-37,20-58.16,56.6-69.58,68.84.88,92-44.93V0H3.57Z"/><path class="cls-2" d="M394.7,225.87c-15.29-3.23-9.28,3.23-13.65,5.92s-6.56,8.62-12-1.61-10.93-3.77-15.85-4.85,1.64-8.08-3.82-14.54-12.57-3.23-19.13-.54-22.4,2.69-22.4,2.69l8.75,36.62,7.64,14.54,24.59,8.62,34.42,3.77L395,271.91a43.51,43.51,0,0,0,4.48-9.45c4.82-13.92,5.07-21,9.19-26.09C404.92,231.33,400.24,227,394.7,225.87Z"/><path class="cls-3" d="M400.87,258.3c-13.2-7.23-39.53-10.92-50.42-17.17-15.66-9-20.22-46.5-57.37-41.65s-67.2-8.61-67.2-8.61l-2.47,8.72c15,17.76,36.77,19.66,55.73,26.49,24.42,8.81,19.06,12.33,27.41,36.41s23.23,17.61,23.23,17.61h46.47s14.89,6.47,23.24-17.61C400,261,400.44,259.62,400.87,258.3Z"/><path class="cls-4" d="M350.45,241.13c-15.66-9-20.22-46.5-57.37-41.65l-1.3.15a35.59,35.59,0,0,1,11.14,8.47c15.3,16.69,24.58,43.08,53,39.85a37.21,37.21,0,0,0,7.74-1.73A66.85,66.85,0,0,1,350.45,241.13Z"/><path class="cls-5" d="M706,28.18V0H324.73c5.66,18.49,19.58,37.69,50.61,49.33,75.07,28.18,111.72,11.49,135,54.57s-71.5,37.88-126,69.58c-27.85,16.16-10,50.35,18.12,79.64,4.48-15.89,3.64-19.56,24.48-27.08,24.43-8.81,53.62-9.39,66.72-46.39s33.37-27,63.75-37,20-58.16,56.6-69.59S682.77,74,706,28.18Z"/><path class="cls-6" d="M274.27,42.4l-72.78,71.71a1.94,1.94,0,0,1-2.7,0h0a1.87,1.87,0,0,1,0-2.66l72.75-71.7a1.91,1.91,0,0,1,2.67,0l0,0h0A1.85,1.85,0,0,1,274.27,42.4Z"/><path class="cls-6" d="M202.58,110.36a3.2,3.2,0,0,1-.05,4.57,3.31,3.31,0,0,1-4.63,0,3.2,3.2,0,0,1,0-4.53,3.31,3.31,0,0,1,4.63,0Z"/><ellipse class="cls-7" cx="200.24" cy="112.65" rx="4.75" ry="4.68"/><path class="cls-6" d="M200.24,110.63a2,2,0,1,1-2.06,2,2,2,0,0,1,2.06-2Z"/><path class="cls-6" d="M524.67,1.91l-43,42.4a1.14,1.14,0,0,1-1.59,0h0a1.11,1.11,0,0,1,0-1.58l43-42.39a1.13,1.13,0,0,1,1.6,0h0A1.1,1.1,0,0,1,524.67,1.91Z"/><path class="cls-6" d="M484.06,40.36a3.18,3.18,0,0,1,0,4.56,3.3,3.3,0,0,1-4.63,0,3.19,3.19,0,0,1,0-4.53,3.3,3.3,0,0,1,4.63,0Z"/><path class="cls-7" d="M485.09,39.28a4.62,4.62,0,0,1,0,6.62,4.81,4.81,0,0,1-6.72,0,4.64,4.64,0,0,1,0-6.63h0A4.82,4.82,0,0,1,485.09,39.28Z"/><path class="cls-6" d="M481.73,40.6a2,2,0,1,1-2,2v0A2,2,0,0,1,481.73,40.6Z"/><path class="cls-6" d="M244.76,1.68,207.93,39.06a1,1,0,0,1-1.36,0h0a1,1,0,0,1,0-1.39L243.39.29a1,1,0,0,1,1.37,0h0a1,1,0,0,1,0,1.39Z"/><path class="cls-6" d="M210.62,35.05a3.19,3.19,0,0,1,0,4.56,3.32,3.32,0,0,1-4.64,0,3.2,3.2,0,0,1,0-4.54,3.31,3.31,0,0,1,4.64,0Z"/><path class="cls-7" d="M211.64,34a4.65,4.65,0,0,1,0,6.63,4.81,4.81,0,0,1-6.73,0,4.64,4.64,0,0,1,0-6.62A4.81,4.81,0,0,1,211.64,34Z"/><path class="cls-6" d="M208.28,35.33a2,2,0,1,1-2.06,2h0A2,2,0,0,1,208.28,35.33Z"/><path class="cls-6" d="M673.51,1.76,633,41.68a1.09,1.09,0,0,1-1.5,0h0a1,1,0,0,1,0-1.49L672,.31a1.07,1.07,0,0,1,1.5,0h0A1,1,0,0,1,673.51,1.76Z"/><path class="cls-6" d="M635.53,37.68a3.19,3.19,0,0,1,0,4.57,3.3,3.3,0,0,1-4.63,0,3.2,3.2,0,0,1,0-4.54,3.31,3.31,0,0,1,4.63,0Z"/><path class="cls-7" d="M636.56,36.67a4.64,4.64,0,0,1,0,6.63,4.8,4.8,0,0,1-6.72,0,4.64,4.64,0,0,1,0-6.63h0A4.8,4.8,0,0,1,636.56,36.67Z"/><path class="cls-6" d="M633.21,38a2,2,0,1,1-2.06,2,2,2,0,0,1,2.06-2Z"/><ellipse class="cls-8" cx="84.25" cy="61.79" rx="62.69" ry="61.79"/><path class="cls-9" d="M62.72,56.58A14.83,14.83,0,1,1,47.9,42,14.73,14.73,0,0,1,62.72,56.58Z"/><path class="cls-10" d="M132.73,35.46a12,12,0,1,1-12-11.84A11.93,11.93,0,0,1,132.73,35.46Z"/><path class="cls-11" d="M95.83,27.06a5.68,5.68,0,1,1-5.68-5.6h0a5.63,5.63,0,0,1,5.67,5.59Z"/><ellipse class="cls-12" cx="81.02" cy="79.28" rx="5.68" ry="5.6"/><path class="cls-13" d="M119,70.86a4.11,4.11,0,1,1-4.14-4,4.07,4.07,0,0,1,4.14,4Z"/><path class="cls-14" d="M69.38,29.41a2.19,2.19,0,1,1-2.19-2.15A2.17,2.17,0,0,1,69.38,29.41Z"/><path class="cls-15" d="M60.52,18.35a2.19,2.19,0,1,1-2.19-2.15A2.17,2.17,0,0,1,60.52,18.35Z"/><path class="cls-16" d="M133.72,121.19a6.26,6.26,0,1,1-6.26-6.17h0A6.22,6.22,0,0,1,133.72,121.19Z"/><path class="cls-17" d="M566.18,52.85a2.27,2.27,0,1,1-2.36-2.15h.09a2.18,2.18,0,0,1,2.27,2.07Z"/><path class="cls-17" d="M247.31,32.88A2.26,2.26,0,1,1,245,30.73h.08a2.18,2.18,0,0,1,2.26,2.07Z"/><path class="cls-17" d="M183.68,127.2a2.27,2.27,0,1,1-2.36-2.15h.1a2.17,2.17,0,0,1,2.26,2.08Z"/><path class="cls-17" d="M350,43.46a2.27,2.27,0,1,1-2.35-2.16h.09A2.17,2.17,0,0,1,350,43.38Z"/><path class="cls-17" d="M576.3,93.13A2.26,2.26,0,1,1,574,91H574a2.18,2.18,0,0,1,2.26,2.08Z"/><path class="cls-17" d="M671,41.43a2.28,2.28,0,1,1-2.36-2.15h.09A2.17,2.17,0,0,1,671,41.36.17.17,0,0,1,671,41.43Z"/><path class="cls-17" d="M237.05,116.27a1.56,1.56,0,1,1-1.64-1.46h.08A1.51,1.51,0,0,1,237.05,116.27Z"/><path class="cls-17" d="M380.41,171.47a1.56,1.56,0,1,1-1.64-1.46h.08A1.52,1.52,0,0,1,380.41,171.47Z"/><path class="cls-17" d="M396.87,44a1.56,1.56,0,1,1-1.64-1.46h.07A1.53,1.53,0,0,1,396.87,44Z"/><path class="cls-17" d="M477.51,193.2a1.56,1.56,0,0,1-3.12.13,1.54,1.54,0,0,1,1.49-1.6H476a1.52,1.52,0,0,1,1.56,1.47Z"/><path class="cls-17" d="M441.55,104.23a1.56,1.56,0,0,1-3.12.15,1.54,1.54,0,0,1,1.48-1.61H440A1.52,1.52,0,0,1,441.55,104.23Z"/><path class="cls-17" d="M361.68,126.51a1.56,1.56,0,1,1-1.63-1.46h.07A1.52,1.52,0,0,1,361.68,126.51Z"/><polygon class="cls-18" points="632.21 121 634.69 130.28 626.1 138.95 623.62 129.68 632.21 121"/><polygon class="cls-19" points="623.62 129.68 626.1 138.95 614.14 135.92 611.66 126.63 623.62 129.68"/><polygon class="cls-20" points="632.21 121 623.62 129.68 611.66 126.63 620.25 117.96 632.21 121"/><path class="cls-21" d="M553,136.21c2.5,25.25-16.24,47.72-41.87,50.19s-48.42-16-50.92-41.26S476.48,97.42,502.11,95,550.53,111,553,136.2Z"/><path class="cls-22" d="M553.32,140.05c-.07.82-.1,2.16-.19,3.7,24,6.89,39.89,13.48,39.13,16.86-1.09,5.13-39.42,1.2-85.5-8.78s-82.5-22.21-81.35-27.33c.7-3.15,15.45-2.87,37.4.12h0l1.59-3.49c-36.19-5.08-62-4.88-63.38,1.49-2,8.91,44.37,26.52,103.54,39.33s108.74,16,110.73,7.05C616.72,162.36,591.15,150.81,553.32,140.05Z"/><ellipse class="cls-23" cx="406.64" cy="241.38" rx="8.94" ry="8.81"/><path class="cls-24" d="M395.46,329s5.8-19.82,13.39-32.15,13.86-21.54,15.2-25.1,6.7-5.29,13,1.32-2.24,24.66-5.81,35.67-13.41,29.51-13.41,29.51Z"/><path class="cls-25" d="M407.82,314.17c-11.17-.44-14.76,1.31-14.76,1.31s-4.46,10.58-6.69,15a48.24,48.24,0,0,0-4,8.76c-2.61.77-4.3,1.36-4.3,1.36l-35.75.59s-6,2.93-20.26,10.57-20.56,16.73-23.83,24.95c-3.21,8.05-7.34,28.45-7.51,29.33,2.09,1,10.13,4.31,18.83,3.56,0,0-5.81,48.47-6.11,52.41-1.16,15.46,110.08.44,110.08.44C412,456,404.54,409,404.54,409s4.31-10.43,3.87-16.16c-.23-3,1.23-13.8,2.58-24.35,1-3.8,2.18-7.83,3.27-10.88,2.68-7.93.3-8.62,5.66-17s6.23-14.08,6.23-14.08S419,314.6,407.82,314.17Z"/><path class="cls-26" d="M290.66,406.07h0l-.54-.26Z"/><path class="cls-27" d="M424.05,196.23s2-4.58,2.93-6,7.22-3.3,7.22-3.3a2.72,2.72,0,0,1-.25,3,14.82,14.82,0,0,1-4.26,3.23,13.79,13.79,0,0,0-1.35,4,30.87,30.87,0,0,0,.79,5.23l-4.37-2.81Z"/><path class="cls-28" d="M426,197.67a43.7,43.7,0,0,1,2.13-4.67c.8-1.32.69-3.41,1.16-4.42s.63-4.31,1.32-5.56c.92-1.61,2.7,1,2.6,2.84a59.91,59.91,0,0,1-1.63,7.61c-.4,1.75.22,6.35,0,7.16s-1,4.85-1,4.85l-2.94-2.33Z"/><path class="cls-29" d="M429.13,202.4a24.5,24.5,0,0,1,1.38-4.41,18,18,0,0,1,2.26-3.23c.78-.7,1.35-1.6,2.11-2.29,1-.47,1.72,1.64.6,3a12.72,12.72,0,0,0-2,4.79,11.65,11.65,0,0,0,0,3.23,9,9,0,0,1-.81,3.71Z"/><path class="cls-30" d="M421.57,278.42s-1-5.44,1.1-14.08,9-33.87,8.48-44.49a11.78,11.78,0,0,0-3.61-8.28c-3.84-3.71-5.46-11-6.43-13.3s.32-11-.4-13.52c.32-2.27,3.28-.57,4,2.37s.41,8.75,1.62,10.06,6.09,9.22,9,11,7.85-1.07,8.53-2.15,5.21-7.44,6.46-7c1.85,1.08,1.64,5.27.26,7.7s-5,7.25-4.65,8.93-1.64,3.46-2.6,5.9.56,10.21,1.3,21.06.27,33.89-5.91,39.43S425.7,289,421.57,278.42Z"/><path class="cls-31" d="M371.79,269.24c-.42.13-1.29-6.16-7.18-8.95s-17.81-4.7-23.7,1.76-6.46,9.84-11.63,13.94-5.16,12.63-5,18.95,5.08,14.52,7.78,17.75,29.84-7.63,30-8.06,10.49-1.33,10.49-1.33l12.77.74s5.18-11.16,2.88-19.24S380.41,266.75,371.79,269.24Z"/><path class="cls-32" d="M293.13,406.53s-7.83,35,15,34.58c8.26-9.26,1.41-31.5,1.41-31.5A34.17,34.17,0,0,1,293.13,406.53Z"/><path class="cls-33" d="M343.47,324.74s3.88,9.39-1.49,17.62c-.6,1.17,3.87,11.15,17.57,12.62,0,0,11.63-.59,18.77-12.62A47.24,47.24,0,0,1,373,322.1Z"/><path class="cls-34" d="M364.62,334.49a35.69,35.69,0,0,1,9.63-3A45.17,45.17,0,0,1,373,322.1l-29.5,2.64s3.88,9.39-1.49,17.62c-.6,1.17,3.87,11.15,17.57,12.62a17,17,0,0,0,2.57-.42c-3.62-3.43-7.52-1.32-10.24-5.53-3.12-4.84-.67-10.13,1.57-12.56S357,337.8,364.62,334.49Z"/><path class="cls-35" d="M382.35,303s5-7.19,9.52-3.53-8.33,21-12.65,14.43S382.35,303,382.35,303Z"/><path class="cls-36" d="M329.5,303.89s-5.07-7.2-9.54-3.53,8.35,21,12.67,14.39S329.5,303.89,329.5,303.89Z"/><path class="cls-37" d="M330.38,310.44s3.82,20.37,28.61,23.19c0,0,15-.47,22.43-20.21,4.52-17.63,5-20.61.7-28.6s-13.88-18.79-31-14.8S325.62,286.47,330.38,310.44Z"/><path class="cls-38" d="M369.09,329.93c4.3-2.82,9.05-7.78,12.33-16.51,3.65-14.22,4.65-18.9,2.65-24.38L374,284.22l-37.39,4.4-7.54,7.84a60,60,0,0,0,1.3,14,30,30,0,0,0,16.46,19.84c-9.36-6.21-11.82-17.36-9.48-19.06,2.83-2.06,5.81-1.61,9.39-5.14s9.68-6.17,9.68-6.17c3.88-1.31,6.55-.29,11,1.48s7.89,2.06,10.13,5.28-2.24,12.33-5.21,18.21A30.08,30.08,0,0,1,369.09,329.93Z"/><path class="cls-39" d="M348.83,278.64s-17,2.15-20.55,10.35-2.24,17.62,1.34,19.16,8.74,1.76,15.86-3.31S359.55,296.68,365,298s14.07,8.61,21,5.73c4.92-3.53,3.36-18.72-2.46-22.69s-12.77-3.77-17.92-3.77S354,277.29,348.83,278.64Z"/><path class="cls-40" d="M383.46,281.06c-5.8-4-12.73-3.74-17.88-3.74s-11.61,0-16.75,1.32c0,0-17,2.15-20.55,10.35a24.79,24.79,0,0,0-1.89,13c12.54,1.16,22.11-9.43,30.41-10.29,8.64-.88,22.34,8.22,28.9,5.58a12.51,12.51,0,0,0,3.15-1.81C388.92,289.93,387,283.45,383.46,281.06Z"/><path class="cls-41" d="M384.8,292.3a9.33,9.33,0,0,0,3.58-1.91c-.77-4-2.46-7.65-4.92-9.33-5.8-4-12.73-3.74-17.88-3.74s-11.61,0-16.75,1.32c0,0-17,2.15-20.55,10.35a24.85,24.85,0,0,0-1.94,7.32,3.11,3.11,0,0,0,1.71.61c5.81.44,22.13-9.91,28.61-10.35S377.88,294.28,384.8,292.3Z"/><path class="cls-42" d="M335,287.32c.23.63-.33,1.4-1.26,1.75s-1.86.09-2.09-.54.32-1.4,1.25-1.75S334.78,286.69,335,287.32Z"/><path class="cls-43" d="M380,284.25l-14.48-2.74a1,1,0,0,1-.77-1.08h0a1,1,0,0,1,1.1-.76l14.49,2.75a1,1,0,0,1,.76,1.08h0A1,1,0,0,1,380,284.25Z"/><path class="cls-44" d="M380,288.52l-14.48-2.76a1,1,0,0,1-.77-1.08h0a1,1,0,0,1,1.1-.75l14.49,2.76a1,1,0,0,1,.76,1.07h0A1,1,0,0,1,380,288.52Z"/><path class="cls-45" d="M321.38,344.41s5.15,3.52,5.71,4.84-.56,6.46-.56,6.93-2.69,4.19-3.46,4.09-1.46-2.16-.56-3.64,1-5.17.11-5.83a23.73,23.73,0,0,1-3.47-3.09C318.6,346.94,319.49,344.41,321.38,344.41Z"/><path class="cls-46" d="M318.6,346.28s5.13,3.53,5.69,4.84-.56,6.46-.56,6.94-2.67,4.19-3.46,4.08-1.45-2.1-.56-3.64,1-5.17.11-5.84a23.53,23.53,0,0,1-3.46-3.08C315.79,348.81,316.7,346.28,318.6,346.28Z"/><path class="cls-47" d="M316.47,349.08s3.82,2.62,4.24,3.6-.42,4.84-.42,5.16-2,3.13-2.58,3-1.09-1.56-.41-2.7.75-3.86.08-4.31a16.51,16.51,0,0,1-2.57-2.3,1.91,1.91,0,0,1,1.27-2.41A1.8,1.8,0,0,1,316.47,349.08Z"/><path class="cls-48" d="M347.64,468.17c-31.69-3.53-33.51-11.46-30.39-18.94s8.49-14.53,7.65-33,1.35-22.89,1.19-31.23,6.42-19.82,6.42-19.82l-13.44,12.31-8,28.63-2.19,9.11c-1.53,12.93-5.2,43.7-5.46,46.82-.53,7,21.85,7.75,46.63,6.46C349.28,468.36,348.48,468.26,347.64,468.17Z"/><path class="cls-49" d="M312.78,369.66s-3.86,19.67-7.44,29.08-10.13,26.12-6.85,35.24,12.21,8.5,17.28,4.1,5.66-15.56,6-23.78,3.58-32.88,4.77-37.29,6-8.52,8.94-11.75,5.36-7.92,8-10,.3-4.7-2.68-4.1-4.47,4.1-6.85,5.87-5.07,0-6.56-.3.79-13.73,2.28-17,7.85-3.89,8.15-7.12-3-1.46-6-.29a20.19,20.19,0,0,0-7.14,5.29,27.73,27.73,0,0,0-3.28,6.75c-.3,1.18-6.26,4.11-7.75,6.16s-2.68,6.17-3,9.4S312.78,369.66,312.78,369.66Z"/><path class="cls-50" d="M327.38,356.74c-.87-.18-.45-4.93.36-9.46l-4.67-5.62-.54-.09a22.17,22.17,0,0,0-1.09,2.84c-.18.68-2.3,2-4.37,3.34,0,1.08-.08,1.83-.08,1.83s-2.69,2.64-2.8,3.75,1.57,1.31,1.91,2.53-.22,2.53-.22,4.18-.45,3,.77,2.53.67,1.33,3.36.67,4.91-2.09,5.69-3.52c.68-1.24,2.43-1.5,3.28-2.46A14.93,14.93,0,0,0,327.38,356.74Z"/><ellipse class="cls-51" cx="339.89" cy="333.19" rx="15.94" ry="15.71"/><path class="cls-52" d="M339.91,349.3a16.1,16.1,0,1,1,16.31-16.12v0A16.27,16.27,0,0,1,339.91,349.3Zm0-31.44a15.34,15.34,0,1,0,15.56,15.34h0a15.47,15.47,0,0,0-15.56-15.34Z"/><g class="cls-53"><path class="cls-17" d="M334.52,334.46a1.25,1.25,0,0,0-.12,1.79,1.3,1.3,0,0,0,1.82.12,1.36,1.36,0,0,0,.12-.12,5.75,5.75,0,0,1,8,0,1.31,1.31,0,0,0,1.83,0,1.26,1.26,0,0,0,0-1.8A8.34,8.34,0,0,0,334.52,334.46Z"/><path class="cls-17" d="M349.84,330.81a13.58,13.58,0,0,0-19,.05,1.25,1.25,0,0,0,0,1.8,1.29,1.29,0,0,0,1.82,0,11,11,0,0,1,15.3-.05,1.29,1.29,0,0,0,1.82,0,1.25,1.25,0,0,0,0-1.8h0Z"/><path class="cls-17" d="M338.63,337.21a2.48,2.48,0,0,0,0,3.55,2.57,2.57,0,0,0,3.6,0,2.48,2.48,0,0,0,0-3.55h0a2.55,2.55,0,0,0-3.58,0Z"/></g><path class="cls-17" d="M568.2,111.53a23,23,0,0,0-12.84-2.69c-7,.78-8.16,6.9-14,6.14s-5.47-1.92-10.93.76-7.39,3.84-12.45,3.45-8.55-1.53-11.27,1.54-3.12,4.6,3.11,3.84,2.72-1.16,11.28,0,8.17-1.54,13.61-1.16,1.95,2.68,6.22,4.6,1.56-2.68,8.17-3.07,10.11,1.92,14-1.91,7.78-4.6,8.95-8.44S571.67,111.53,568.2,111.53Z"/><path class="cls-17" d="M427.6,156.84s2.25-7.07,8.53-5.31,4,8.86,7.65,8,4.49-4,9-.88,1.34,5.31,6.28,5.31,2.24-3.1,7.65,0,6.28.44,11.22.88,6.29-1.33,9.43.44,1.35,5.31-4,4.42-5.84-3.53-12.12-1.32-9,1.77-14.82.88-8.07.89-13.91,0-6.77-1.79-11.26-1.79-7.18,2.66-11.22,0-.9-4,2.7-5.31S427.6,156.84,427.6,156.84Z"/><ellipse class="cls-54" cx="295.59" cy="241.96" rx="20.62" ry="20.32"/><polygon class="cls-55" points="168.54 139.68 166.43 151.02 152.58 156.13 154.7 144.79 168.54 139.68"/><polygon class="cls-56" points="154.7 144.79 152.58 156.13 141.14 146.79 143.25 135.45 154.7 144.79"/><polygon class="cls-57" points="168.54 139.68 154.7 144.79 143.25 135.45 157.1 130.34 168.54 139.68"/><path class="cls-17" d="M204,163.94s3.82,12.39,25.13,6.46,61.19-44.69,65.56-56.54l8.74,7s-41.88,24-57.18,66.77c-10.36,28.91,17.85,33.75,17.85,33.75S201.84,228.56,204,163.94Z"/><path class="cls-58" d="M309.29,101.83s-19.48,22.26-32.05,24.42-10.38,9.69-17.48,15.61-13.12-1.61-22.4,3.77-3.28,14-11.48,15.62-15.3-15.62-27.32-7.54-22.94-2.16-22.94-2.16L201.84,193l21.31-4.85,29-19.92,50.26-54.39Z"/><path class="cls-58" d="M312.77,105.39s-20.35,21.54-21.18,34-8.66,11.21-13.87,18.8,3,12.68-1.4,22.36-13.78,4.72-14.52,12.92,17.39,13.32,10.53,26S277,241.75,277,241.75l-44.64-21.24,2.6-21.43,17-30.56,49.47-55.09Z"/><polygon class="cls-59" points="294.32 110.88 305.44 120.99 303.36 123.22 292.24 113.11 294.32 110.88"/><path class="cls-60" d="M316.88,111.44l1.28,12.12a2,2,0,0,1-.78,1.83l-8.94,7.06a.52.52,0,0,1-.71-.07.47.47,0,0,1-.07-.52l2.78-5.78-4-6.19Z"/><path class="cls-61" d="M302.86,98.64l-12.38-.27a2.07,2.07,0,0,0-1.78.92l-6.41,9.37a.49.49,0,0,0,.15.68.49.49,0,0,0,.51,0l5.62-3.23,6.56,3.45Z"/><path class="cls-62" d="M330.55,82.9h0c-18.83-5-38.24,27-38.24,27l7,6.37h0l7,6.38S337.14,101,330.55,82.9Z"/><path class="cls-63" d="M294.79,121.32h0a.77.77,0,0,1,0-1.07l13.35-14.32a.79.79,0,0,1,1.09,0h0a.76.76,0,0,1,0,1.08L295.9,121.27a.8.8,0,0,1-1.11.06Z"/><path class="cls-64" d="M321.43,102.19a6.27,6.27,0,0,1-8.76.36,6,6,0,0,1-.37-8.62,6.25,6.25,0,0,1,8.75-.37h0A6,6,0,0,1,321.43,102.19Z"/><path class="cls-65" d="M320.29,101.15a4.71,4.71,0,0,1-6.58.28,4.54,4.54,0,0,1-.28-6.48,4.71,4.71,0,0,1,6.58-.28l0,0A4.52,4.52,0,0,1,320.29,101.15Z"/><polygon class="cls-66" points="190.87 46.44 178.22 52.83 162.98 43.49 175.62 37.09 190.87 46.44"/><polygon class="cls-67" points="175.62 37.09 162.98 43.49 163.61 25.71 176.26 19.31 175.62 37.09"/><polygon class="cls-68" points="190.87 46.44 175.62 37.09 176.26 19.31 191.51 28.66 190.87 46.44"/><path class="cls-6" d="M372.68,133.58l-23.8,23.87a1.94,1.94,0,0,1-2.7,0h0a1.85,1.85,0,0,1,0-2.66L370,130.92a1.94,1.94,0,0,1,2.7,0h0A1.87,1.87,0,0,1,372.68,133.58Z"/><path class="cls-6" d="M404.18,102.13,380.37,126a1.93,1.93,0,0,1-2.69,0h0a1.85,1.85,0,0,1,0-2.64l0,0,23.8-23.87a1.94,1.94,0,0,1,2.7,0h0A1.87,1.87,0,0,1,404.18,102.13Z"/><path class="cls-6" d="M350,153.69a3.2,3.2,0,0,1,0,4.57,3.32,3.32,0,0,1-4.64,0,3.2,3.2,0,0,1,0-4.54,3.31,3.31,0,0,1,4.64,0Z"/><ellipse class="cls-7" cx="347.62" cy="155.99" rx="4.75" ry="4.68"/><path class="cls-6" d="M347.62,154a2,2,0,1,1-2.05,2,2,2,0,0,1,2.05-2Z"/><path class="cls-6" d="M377.11,128.47a2,2,0,1,1-1.95-1.92,1.94,1.94,0,0,1,1.95,1.92Z"/><polygon class="cls-69" points="332.61 157.79 336.08 171.38 323.39 183.92 319.93 170.33 332.61 157.79"/><polygon class="cls-70" points="319.93 170.33 323.39 183.92 305.98 179.29 302.5 165.71 319.93 170.33"/><polygon class="cls-71" points="332.61 157.79 319.93 170.33 302.5 165.71 315.19 153.17 332.61 157.79"/></g></g></g></g></svg>